<svg viewBox="0 0 100 100" version="1.1" xmlns="http://www.w3.org/2000/svg">
<svg width="100" height="100" viewBox="0 0 300 300" fill="none" xmlns="http://www.w3.org/2000/svg" version="1.1">
<g clip-path="url(#clip0_2002_535)">
<path d="M28 170C124.5 173 136 199.5 127 115.5C127 101.75 164.5 62.5 118 62.5H62" stroke="#0C8B6C" stroke-width="10" stroke-linecap="round" stroke-linejoin="round"/>
<path d="M200.5 38C175.5 69.5 193.5 91 242 69.5" stroke="#0C8B6C" stroke-width="10" stroke-linecap="round" stroke-linejoin="round"/>
<path d="M146 273C151 268.5 170 232.499 129 243C122.37 243 105.5 223.499 94 255" stroke="#0C8B6C" stroke-width="10" stroke-linecap="round" stroke-linejoin="round"/>
<path d="M192 267.5C170.5 276.5 150 275 150 275C80.9644 275 25 219.036 25 150C25 80.9644 80.9644 25 150 25C219.036 25 275 80.9644 275 150C275 150 275 159.5 273.5 168" stroke="#0C8B6C" stroke-width="10" stroke-linecap="round" stroke-linejoin="round"/>
<path d="M217.733 258.72C217.733 258.72 213.816 250.881 207.287 243.629C200.759 236.376 178.179 233.517 174.24 221.114C170.301 208.71 178.444 202.878 178.444 202.878C178.444 202.878 175.031 190.092 183.149 182.164C187.866 177.558 194.096 175.419 201.707 175.859C205.487 165.885 216.514 165.18 219.678 164.792C222.842 164.404 231.884 166.134 234.589 171.821C242.5 170 252.071 177.543 254.7 183.63C257.329 189.717 255.554 200.683 257.75 208.469C260.603 218.589 270.765 227.021 270.765 227.021" stroke="#FFBD5B" stroke-width="6" stroke-linecap="round"/>
<rect width="300" height="300" fill="url(#paint0_radial_2002_535)"/>
<path d="M28 170C124.5 173 136 199.5 127 115.5C127 101.75 164.5 62.5 118 62.5H62" stroke="white" stroke-width="10" stroke-linecap="round" stroke-linejoin="round"/>
<path d="M200.5 38C175.5 69.5 193.5 91 242 69.5" stroke="white" stroke-width="10" stroke-linecap="round" stroke-linejoin="round"/>
<path d="M146 273C151 268.5 170 232.499 129 243C122.37 243 105.5 223.499 94 255" stroke="white" stroke-width="10" stroke-linecap="round" stroke-linejoin="round"/>
<path d="M192 267.5C170.5 276.5 150 275 150 275C80.9644 275 25 219.036 25 150C25 80.9644 80.9644 25 150 25C219.036 25 275 80.9644 275 150C275 150 275 159.5 273.5 168" stroke="white" stroke-width="10" stroke-linecap="round" stroke-linejoin="round"/>
<path d="M217.733 258.72C217.733 258.72 213.816 250.881 207.287 243.629C200.759 236.376 178.179 233.517 174.24 221.114C170.301 208.71 178.444 202.878 178.444 202.878C178.444 202.878 175.031 190.092 183.149 182.164C187.866 177.558 194.096 175.419 201.707 175.859C205.487 165.885 216.514 165.18 219.678 164.792C222.842 164.404 231.884 166.134 234.589 171.821C242.5 170 252.071 177.543 254.7 183.63C257.329 189.717 255.554 200.683 257.75 208.469C260.603 218.589 270.765 227.021 270.765 227.021" stroke="white" stroke-width="6" stroke-linecap="round"/>
<path d="M197.587 188.018C200.543 186.024 206.232 187.71 208.099 190.478C209.966 193.246 212.284 199.576 207.679 202.682C203.075 205.788 198.63 204.855 195.82 200.689C193.01 196.523 194.63 190.011 197.587 188.018Z" stroke="white" stroke-width="4"/>
<path d="M214.136 176.509C216.6 174.848 220.511 174.74 223.133 178.628C225.756 182.516 225.747 188.534 222.791 190.528C219.835 192.522 214.901 192.182 211.753 187.516C208.606 182.85 211.672 178.171 214.136 176.509Z" stroke="white" stroke-width="4"/>
<path d="M236.335 181.743C240.026 180.688 242.531 184.402 243.087 186.452C243.642 188.502 244.202 193.021 240.859 195.276C237.516 197.53 233.62 196.035 231.976 191.908C230.332 187.782 232.643 182.799 236.335 181.743Z" stroke="white" stroke-width="4"/>
<path d="M216.385 205.5C221.29 202.191 231.136 198.182 239.763 206.836C242.9 209.984 242.802 213.824 241.053 216.923C237.847 222.603 232.014 219.921 229.767 221.473C227.113 223.306 226.693 227.925 221.291 230.253C215.889 232.581 212.41 229.234 210.397 225.329C206.37 217.518 211.481 208.808 216.385 205.5Z" stroke="white" stroke-width="4"/>
<path d="M186.61 212.043C188.972 207.726 195.562 209.574 198.663 212.331C201.763 215.088 201.467 218.16 200.535 220.565C198.933 224.698 194.9 226.991 190.383 223.977C185.867 220.962 184.247 216.359 186.61 212.043Z" stroke="white" stroke-width="4"/>
</g>
<defs>
<radialGradient id="paint0_radial_2002_535" cx="0" cy="0" r="1" gradientUnits="userSpaceOnUse" gradientTransform="translate(58 9.29515e-06) rotate(60.1729) scale(345.809)">
<stop stop-color="#FFBD5B"/>
<stop offset="0.362398" stop-color="#FFAB5F"/>
<stop offset="1" stop-color="#FF7E2F"/>
</radialGradient>
<clipPath id="clip0_2002_535">
<rect width="300" height="300" fill="white"/>
</clipPath>
</defs>
</svg>
</svg>