<svg viewBox="0 0 100 100" version="1.1" xmlns="http://www.w3.org/2000/svg">
<svg width="100" height="100" viewBox="0 0 300 300" fill="none" xmlns="http://www.w3.org/2000/svg" version="1.1">
<g clip-path="url(#clip0_2006_108)">
<rect width="300" height="300" fill="url(#paint0_radial_2006_108)"/>
<path d="M28 170C124.5 173 136 199.5 127 115.5C127 101.75 164.5 62.5 118 62.5H62" stroke="white" stroke-width="10" stroke-linecap="round" stroke-linejoin="round"/>
<path d="M200.5 38C175.5 69.5 193.5 91 242 69.5" stroke="white" stroke-width="10" stroke-linecap="round" stroke-linejoin="round"/>
<path d="M146 273C151 268.5 170 232.499 129 243C122.37 243 105.5 223.499 94 255" stroke="white" stroke-width="10" stroke-linecap="round" stroke-linejoin="round"/>
<path d="M192 267.5C170.5 276.5 150 275 150 275C80.9644 275 25 219.036 25 150C25 80.9644 80.9644 25 150 25C219.036 25 275 80.9644 275 150C275 150 275 159.5 273.5 168" stroke="white" stroke-width="10" stroke-linecap="round" stroke-linejoin="round"/>
<path d="M273.051 203.567C273.051 203.567 264.213 196.773 256.741 186.86C249.269 176.947 251.18 148.056 236.647 140.127C222.115 132.197 212.855 140.95 212.855 140.95C212.855 140.95 197.717 133.585 185.847 141.798C178.95 146.57 174.767 153.831 173.468 163.441C160.096 165.741 156.539 179.34 155.286 183.197C154.033 187.054 153.999 198.764 160.445 203.523C156.25 212.96 163.346 226.742 170.309 231.503C177.272 236.263 191.397 236.709 200.586 241.34C212.531 247.36 220.594 262.096 220.594 262.096" stroke="white" stroke-width="8" stroke-linecap="round"/>
<path d="M189.654 161.238C186.447 164.446 187.172 171.959 190.175 174.963C193.179 177.966 200.521 182.397 205.517 177.401C210.513 172.405 210.426 166.628 205.907 162.108C201.387 157.588 192.862 158.03 189.654 161.238Z" stroke="white" stroke-width="5"/>
<path d="M170.205 180.169C167.532 182.842 166.448 187.7 170.667 191.919C174.886 196.137 182.402 197.587 185.61 194.38C188.818 191.172 189.591 184.928 184.528 179.865C179.466 174.803 172.878 177.495 170.205 180.169Z" stroke="white" stroke-width="5"/>
<path d="M172.418 209.155C170.203 213.508 174.234 217.538 176.659 218.729C179.084 219.92 184.591 221.716 188.218 218.089C191.845 214.462 190.923 209.233 186.17 206.179C181.416 203.125 174.632 204.801 172.418 209.155Z" stroke="white" stroke-width="5"/>
<path d="M206.922 188.957C201.6 194.279 194.203 205.601 202.917 218.475C206.086 223.156 210.905 223.966 215.2 222.533C223.071 219.908 221.137 211.974 223.62 209.545C226.553 206.675 232.424 207.272 236.642 201.091C240.861 194.91 237.525 189.754 233.137 186.292C224.362 179.368 212.244 183.635 206.922 188.957Z" stroke="white" stroke-width="5"/>
<path d="M222.316 153.363C216.352 155.266 217.06 163.943 219.75 168.484C222.44 173.025 226.348 173.401 229.578 172.821C235.128 171.823 238.97 167.343 236.302 160.972C233.634 154.6 228.279 151.46 222.316 153.363Z" stroke="white" stroke-width="5"/>
</g>
<defs>
<radialGradient id="paint0_radial_2006_108" cx="0" cy="0" r="1" gradientUnits="userSpaceOnUse" gradientTransform="translate(58 9.29515e-06) rotate(60.1729) scale(345.809)">
<stop stop-color="#FFBD5B"/>
<stop offset="0.362398" stop-color="#FFAB5F"/>
<stop offset="1" stop-color="#FF7E2F"/>
</radialGradient>
<clipPath id="clip0_2006_108">
<rect width="300" height="300" fill="white"/>
</clipPath>
</defs>
</svg>
</svg>