<svg xmlns="http://www.w3.org/2000/svg" width="300" height="300" fill="none"><g clip-path="url(#a)"><path stroke="#0C8B6C" stroke-linecap="round" stroke-linejoin="round" stroke-width="10" d="M28 170c96.5 3 108 29.5 99-54.5 0-13.75 37.5-53-9-53H62M200.5 38c-25 31.5-7 53 41.5 31.5M146 273c5-4.5 24-40.501-17-30-6.63 0-23.5-19.501-35 12"/><path stroke="#0C8B6C" stroke-linecap="round" stroke-linejoin="round" stroke-width="10" d="M192 267.5c-21.5 9-42 7.5-42 7.5-69.036 0-125-55.964-125-125S80.964 25 150 25s125 55.964 125 125c0 0 0 9.5-1.5 18"/><path stroke="#FFBD5B" stroke-linecap="round" stroke-width="6" d="M217.733 258.72s-3.917-7.839-10.446-15.091c-6.528-7.253-29.108-10.112-33.047-22.515s4.204-18.236 4.204-18.236-3.413-12.786 4.705-20.714c4.717-4.606 10.947-6.745 18.558-6.305 3.78-9.974 14.807-10.679 17.971-11.067s12.206 1.342 14.911 7.029c7.911-1.821 17.482 5.722 20.111 11.809s.854 17.053 3.05 24.839c2.853 10.12 13.015 18.552 13.015 18.552"/><path fill="url(#b)" d="M0 0h300v300H0z"/><path stroke="#fff" stroke-linecap="round" stroke-linejoin="round" stroke-width="10" d="M28 170c96.5 3 108 29.5 99-54.5 0-13.75 37.5-53-9-53H62M200.5 38c-25 31.5-7 53 41.5 31.5M146 273c5-4.5 24-40.501-17-30-6.63 0-23.5-19.501-35 12"/><path stroke="#fff" stroke-linecap="round" stroke-linejoin="round" stroke-width="10" d="M192 267.5c-21.5 9-42 7.5-42 7.5-69.036 0-125-55.964-125-125S80.964 25 150 25s125 55.964 125 125c0 0 0 9.5-1.5 18"/><path stroke="#fff" stroke-linecap="round" stroke-width="6" d="M217.733 258.72s-3.917-7.839-10.446-15.091c-6.528-7.253-29.108-10.112-33.047-22.515s4.204-18.236 4.204-18.236-3.413-12.786 4.705-20.714c4.717-4.606 10.947-6.745 18.558-6.305 3.78-9.974 14.807-10.679 17.971-11.067s12.206 1.342 14.911 7.029c7.911-1.821 17.482 5.722 20.111 11.809s.854 17.053 3.05 24.839c2.853 10.12 13.015 18.552 13.015 18.552"/><path stroke="#fff" stroke-width="4" d="M197.587 188.018c2.956-1.994 8.645-.308 10.512 2.46s4.185 9.098-.42 12.204-9.049 2.173-11.859-1.993-1.19-10.678 1.767-12.671ZM214.136 176.509c2.464-1.661 6.375-1.769 8.997 2.119 2.623 3.888 2.614 9.906-.342 11.9s-7.89 1.654-11.038-3.012c-3.147-4.666-.081-9.345 2.383-11.007ZM236.335 181.743c3.691-1.055 6.196 2.659 6.752 4.709.555 2.05 1.115 6.569-2.228 8.824s-7.239.759-8.883-3.368.667-9.109 4.359-10.165ZM216.385 205.5c4.905-3.309 14.751-7.318 23.378 1.336 3.137 3.148 3.039 6.988 1.29 10.087-3.206 5.68-9.039 2.998-11.286 4.55-2.654 1.833-3.074 6.452-8.476 8.78s-8.881-1.019-10.894-4.924c-4.027-7.811 1.084-16.521 5.988-19.829ZM186.61 212.043c2.362-4.317 8.952-2.469 12.053.288 3.1 2.757 2.804 5.829 1.872 8.234-1.602 4.133-5.635 6.426-10.152 3.412s-6.136-7.618-3.773-11.934Z"/></g><defs><radialGradient id="b" cx="0" cy="0" r="1" gradientTransform="rotate(60.173 29 50.055)scale(345.809)" gradientUnits="userSpaceOnUse"><stop stop-color="#FFBD5B"/><stop offset=".362" stop-color="#FFAB5F"/><stop offset="1" stop-color="#FF7E2F"/></radialGradient><clipPath id="a"><path fill="#fff" d="M0 0h300v300H0z"/></clipPath></defs></svg>
